<svg width="33" height="32" viewBox="0 0 33 32" fill="none" xmlns="http://www.w3.org/2000/svg">
<g id="vuesax/outline/call-calling">
<g id="vuesax/outline/call-calling_2">
<g id="call-calling">
<path id="Vector" d="M23.5995 30.3334C22.0928 30.3334 20.5062 29.9734 18.8662 29.2801C17.2662 28.6001 15.6528 27.6667 14.0795 26.5334C12.5195 25.3867 11.0128 24.1067 9.58618 22.7067C8.17285 21.2801 6.89285 19.7734 5.75951 18.2267C4.61285 16.6267 3.69285 15.0267 3.03951 13.4801C2.34618 11.8267 1.99951 10.2267 1.99951 8.72008C1.99951 7.68008 2.18618 6.69341 2.54618 5.77341C2.91951 4.82675 3.51951 3.94675 4.33285 3.18675C5.35951 2.17341 6.53285 1.66675 7.78618 1.66675C8.30618 1.66675 8.83951 1.78675 9.29284 2.00008C9.81284 2.24008 10.2528 2.60008 10.5728 3.08008L13.6662 7.44008C13.9462 7.82675 14.1595 8.20008 14.3062 8.57341C14.4795 8.97341 14.5728 9.37342 14.5728 9.76008C14.5728 10.2667 14.4262 10.7601 14.1462 11.2267C13.9462 11.5867 13.6395 11.9734 13.2528 12.3601L12.3462 13.3067C12.3595 13.3467 12.3728 13.3734 12.3862 13.4001C12.5462 13.6801 12.8662 14.1601 13.4795 14.8801C14.1328 15.6267 14.7462 16.3067 15.3595 16.9334C16.1462 17.7067 16.7995 18.3201 17.4128 18.8267C18.1728 19.4667 18.6662 19.7867 18.9595 19.9334L18.9328 20.0001L19.9062 19.0401C20.3195 18.6267 20.7195 18.3201 21.1062 18.1201C21.8395 17.6667 22.7728 17.5867 23.7062 17.9734C24.0528 18.1201 24.4262 18.3201 24.8262 18.6001L29.2528 21.7467C29.7462 22.0801 30.1062 22.5067 30.3195 23.0134C30.5195 23.5201 30.6128 23.9867 30.6128 24.4534C30.6128 25.0934 30.4662 25.7334 30.1862 26.3334C29.9062 26.9334 29.5595 27.4534 29.1195 27.9334C28.3595 28.7734 27.5328 29.3734 26.5728 29.7601C25.6528 30.1334 24.6528 30.3334 23.5995 30.3334ZM7.78618 3.66675C7.05285 3.66675 6.37285 3.98675 5.71951 4.62675C5.10618 5.20008 4.67951 5.82675 4.41285 6.50675C4.13285 7.20008 3.99951 7.93341 3.99951 8.72008C3.99951 9.96008 4.29285 11.3067 4.87951 12.6934C5.47951 14.1067 6.31951 15.5734 7.38618 17.0401C8.45285 18.5067 9.66618 19.9334 10.9995 21.2801C12.3328 22.6001 13.7728 23.8267 15.2528 24.9067C16.6928 25.9601 18.1728 26.8134 19.6395 27.4267C21.9195 28.4001 24.0528 28.6267 25.8128 27.8934C26.4928 27.6134 27.0928 27.1867 27.6395 26.5734C27.9462 26.2401 28.1862 25.8801 28.3862 25.4534C28.5462 25.1201 28.6262 24.7734 28.6262 24.4267C28.6262 24.2134 28.5862 24.0001 28.4795 23.7601C28.4395 23.6801 28.3595 23.5334 28.1062 23.3601L23.6795 20.2134C23.4128 20.0267 23.1728 19.8934 22.9462 19.8001C22.6528 19.6801 22.5328 19.5601 22.0795 19.8401C21.8128 19.9734 21.5728 20.1734 21.3062 20.4401L20.2928 21.4401C19.7728 21.9467 18.9728 22.0667 18.3595 21.8401L17.9995 21.6801C17.4528 21.3867 16.8128 20.9334 16.1062 20.3334C15.4662 19.7867 14.7728 19.1467 13.9328 18.3201C13.2795 17.6534 12.6262 16.9467 11.9462 16.1601C11.3195 15.4267 10.8662 14.8001 10.5862 14.2801L10.4262 13.8801C10.3462 13.5734 10.3195 13.4001 10.3195 13.2134C10.3195 12.7334 10.4928 12.3067 10.8262 11.9734L11.8262 10.9334C12.0928 10.6667 12.2928 10.4134 12.4262 10.1867C12.5328 10.0134 12.5728 9.86675 12.5728 9.73342C12.5728 9.62675 12.5328 9.46675 12.4662 9.30675C12.3728 9.09341 12.2262 8.85341 12.0395 8.60008L8.94618 4.22675C8.81285 4.04008 8.65285 3.90675 8.45285 3.81341C8.23951 3.72008 8.01285 3.66675 7.78618 3.66675ZM18.9328 20.0134L18.7195 20.9201L19.0795 19.9867C19.0128 19.9734 18.9595 19.9867 18.9328 20.0134Z" fill="#353535"/>
<path id="Vector_2" d="M24.9997 12.9999C24.453 12.9999 23.9997 12.5466 23.9997 11.9999C23.9997 11.5199 23.5197 10.5199 22.7197 9.66659C21.933 8.82659 21.0663 8.33325 20.333 8.33325C19.7863 8.33325 19.333 7.87992 19.333 7.33325C19.333 6.78659 19.7863 6.33325 20.333 6.33325C21.6263 6.33325 22.9863 7.02658 24.173 8.29325C25.2797 9.47992 25.9997 10.9333 25.9997 11.9999C25.9997 12.5466 25.5463 12.9999 24.9997 12.9999Z" fill="#353535"/>
<path id="Vector_3" d="M29.6663 13.0001C29.1197 13.0001 28.6663 12.5467 28.6663 12.0001C28.6663 7.40008 24.933 3.66675 20.333 3.66675C19.7863 3.66675 19.333 3.21341 19.333 2.66675C19.333 2.12008 19.7863 1.66675 20.333 1.66675C26.0263 1.66675 30.6663 6.30675 30.6663 12.0001C30.6663 12.5467 30.213 13.0001 29.6663 13.0001Z" fill="#353535"/>
</g>
</g>
</g>
</svg>
