<svg width="24" height="25" viewBox="0 0 24 25" fill="none" xmlns="http://www.w3.org/2000/svg">
<g id="vuesax/outline/card-pos">
<g id="card-pos">
<path id="Vector" d="M3.93012 17.13C3.74012 17.13 3.55012 17.06 3.40012 16.91C3.11012 16.62 3.11012 16.14 3.40012 15.85L15.3501 3.9C15.6401 3.61 16.1201 3.61 16.4101 3.9C16.7001 4.19 16.7001 4.67 16.4101 4.96L4.46012 16.92C4.32012 17.06 4.12012 17.13 3.93012 17.13Z" fill="#717171"/>
<path id="Vector_2" d="M11.1 19.53C10.91 19.53 10.72 19.46 10.57 19.31C10.28 19.02 10.28 18.54 10.57 18.25L11.77 17.05C12.06 16.76 12.54 16.76 12.83 17.05C13.12 17.34 13.12 17.82 12.83 18.11L11.63 19.31C11.49 19.45 11.3 19.53 11.1 19.53Z" fill="#717171"/>
<path id="Vector_3" d="M13.79 16.84C13.6 16.84 13.41 16.77 13.26 16.62C12.97 16.33 12.97 15.85 13.26 15.56L15.65 13.17C15.94 12.88 16.42 12.88 16.71 13.17C17 13.46 17 13.94 16.71 14.23L14.32 16.62C14.18 16.76 13.98 16.84 13.79 16.84Z" fill="#717171"/>
<path id="Vector_4" d="M11.0999 23.25C10.1199 23.25 9.13991 22.65 7.94991 21.46L3.03991 16.55C0.649914 14.16 0.659914 12.62 3.06991 10.21L9.70991 3.56998C12.1199 1.15998 13.6599 1.14998 16.0499 3.53998L20.9599 8.44998C23.3499 10.84 23.3399 12.38 20.9299 14.79L14.2899 21.43C13.0799 22.64 12.0899 23.25 11.0999 23.25ZM12.8999 3.24998C12.3799 3.24998 11.7199 3.67998 10.7699 4.62998L4.12991 11.27C3.17991 12.22 2.74991 12.88 2.74991 13.39C2.74991 13.91 3.14991 14.54 4.09991 15.49L9.00991 20.4C9.95991 21.35 10.5799 21.75 11.0999 21.75C11.0999 21.75 11.0999 21.75 11.1099 21.75C11.6299 21.75 12.2799 21.32 13.2299 20.37L19.8699 13.73C20.8199 12.78 21.2499 12.12 21.2499 11.61C21.2499 11.09 20.8499 10.46 19.8999 9.50998L14.9899 4.59998C14.0499 3.64998 13.4199 3.24998 12.8999 3.24998Z" fill="#717171"/>
<path id="Vector_5" d="M22 23.25H2C1.59 23.25 1.25 22.91 1.25 22.5C1.25 22.09 1.59 21.75 2 21.75H22C22.41 21.75 22.75 22.09 22.75 22.5C22.75 22.91 22.41 23.25 22 23.25Z" fill="#717171"/>
</g>
</g>
</svg>
