<svg width="33" height="32" viewBox="0 0 33 32" fill="none" xmlns="http://www.w3.org/2000/svg">
<g id="vuesax/outline/clock">
<g id="vuesax/outline/clock_2">
<g id="clock">
<path id="Vector" d="M16.6663 30.3334C8.75967 30.3334 2.33301 23.9067 2.33301 16.0001C2.33301 8.09342 8.75967 1.66675 16.6663 1.66675C24.573 1.66675 30.9997 8.09342 30.9997 16.0001C30.9997 23.9067 24.573 30.3334 16.6663 30.3334ZM16.6663 3.66675C9.86634 3.66675 4.33301 9.20008 4.33301 16.0001C4.33301 22.8001 9.86634 28.3334 16.6663 28.3334C23.4663 28.3334 28.9997 22.8001 28.9997 16.0001C28.9997 9.20008 23.4663 3.66675 16.6663 3.66675Z" fill="#353535"/>
<path id="Vector_2" d="M21.6132 21.2401C21.4399 21.2401 21.2665 21.2001 21.1065 21.0934L16.9732 18.6268C15.9465 18.0134 15.1865 16.6668 15.1865 15.4801V10.0134C15.1865 9.46676 15.6399 9.01343 16.1865 9.01343C16.7332 9.01343 17.1865 9.46676 17.1865 10.0134V15.4801C17.1865 15.9601 17.5865 16.6668 17.9999 16.9068L22.1332 19.3734C22.6132 19.6534 22.7599 20.2668 22.4799 20.7468C22.2799 21.0668 21.9465 21.2401 21.6132 21.2401Z" fill="#353535"/>
</g>
</g>
</g>
</svg>
