<svg width="24" height="25" viewBox="0 0 24 25" fill="none" xmlns="http://www.w3.org/2000/svg">
<g id="vuesax/outline/discount-shape">
<g id="discount-shape">
<path id="Vector" d="M12 23.25C11.37 23.25 10.78 23.01 10.34 22.56L8.82001 21.04C8.70001 20.92 8.38 20.79 8.22 20.79H6.06C4.76 20.79 3.70999 19.7399 3.70999 18.4399V16.28C3.70999 16.12 3.57999 15.8 3.45999 15.68L1.94 14.16C1.5 13.72 1.25 13.13 1.25 12.5C1.25 11.87 1.49 11.2799 1.94 10.8399L3.45999 9.31991C3.57999 9.19991 3.70999 8.87994 3.70999 8.71994V6.56002C3.70999 5.26002 4.76 4.20993 6.06 4.20993H8.22C8.38 4.20993 8.70001 4.07993 8.82001 3.95993L10.34 2.43991C11.22 1.55991 12.78 1.55991 13.66 2.43991L15.18 3.95993C15.3 4.07993 15.62 4.20993 15.78 4.20993H17.94C19.24 4.20993 20.29 5.26002 20.29 6.56002V8.71994C20.29 8.87994 20.42 9.19991 20.54 9.31991L22.06 10.8399C22.5 11.2799 22.75 11.87 22.75 12.5C22.75 13.13 22.51 13.72 22.06 14.16L20.54 15.68C20.42 15.8 20.29 16.12 20.29 16.28V18.4399C20.29 19.7399 19.24 20.79 17.94 20.79H15.78C15.62 20.79 15.3 20.92 15.18 21.04L13.66 22.56C13.22 23.01 12.63 23.25 12 23.25ZM4.51999 14.62C4.91999 15.02 5.20999 15.72 5.20999 16.28V18.4399C5.20999 18.9099 5.59 19.29 6.06 19.29H8.22C8.78 19.29 9.48001 19.5799 9.88 19.9799L11.4 21.5C11.72 21.82 12.28 21.82 12.6 21.5L14.12 19.9799C14.52 19.5799 15.22 19.29 15.78 19.29H17.94C18.41 19.29 18.79 18.9099 18.79 18.4399V16.28C18.79 15.72 19.08 15.02 19.48 14.62L21 13.0999C21.16 12.9399 21.25 12.73 21.25 12.5C21.25 12.27 21.16 12.06 21 11.9L19.48 10.38C19.08 9.97997 18.79 9.27994 18.79 8.71994V6.56002C18.79 6.09002 18.41 5.70993 17.94 5.70993H15.78C15.22 5.70993 14.52 5.41999 14.12 5.01999L12.6 3.49997C12.28 3.17997 11.72 3.17997 11.4 3.49997L9.88 5.01999C9.48001 5.41999 8.78 5.70993 8.22 5.70993H6.06C5.59 5.70993 5.20999 6.09002 5.20999 6.56002V8.71994C5.20999 9.27994 4.91999 9.97997 4.51999 10.38L3 11.9C2.84 12.06 2.75 12.27 2.75 12.5C2.75 12.73 2.84 12.9399 3 13.0999L4.51999 14.62Z" fill="#353535"/>
<path id="Vector_2" d="M15.0002 16.5C14.4402 16.5 13.9902 16.05 13.9902 15.5C13.9902 14.95 14.4402 14.5 14.9902 14.5C15.5402 14.5 15.9902 14.95 15.9902 15.5C15.9902 16.05 15.5502 16.5 15.0002 16.5Z" fill="#353535"/>
<path id="Vector_3" d="M9.01001 10.5C8.45001 10.5 8 10.05 8 9.5C8 8.95 8.45 8.5 9 8.5C9.55 8.5 10 8.95 10 9.5C10 10.05 9.56001 10.5 9.01001 10.5Z" fill="#353535"/>
<path id="Vector_4" d="M8.99994 16.25C8.80994 16.25 8.61994 16.18 8.46994 16.03C8.17994 15.74 8.17994 15.2599 8.46994 14.9699L14.4699 8.96994C14.7599 8.67994 15.2399 8.67994 15.5299 8.96994C15.8199 9.25994 15.8199 9.74 15.5299 10.03L9.52994 16.03C9.37994 16.18 9.18994 16.25 8.99994 16.25Z" fill="#353535"/>
</g>
</g>
</svg>
