<svg xmlns="http://www.w3.org/2000/svg" width="32" height="32" viewBox="0 0 32 32" fill="none">
<path d="M24.2534 23.6667H10.0534C8.73341 23.6667 7.46674 23.1067 6.57341 22.1334C5.68007 21.16 5.22675 19.8533 5.33341 18.5333L6.44008 5.25336C6.48008 4.84002 6.33341 4.44003 6.05341 4.13336C5.77341 3.8267 5.38674 3.66669 4.97341 3.66669H2.66675C2.12008 3.66669 1.66675 3.21335 1.66675 2.66669C1.66675 2.12002 2.12008 1.66669 2.66675 1.66669H4.98676C5.96009 1.66669 6.88007 2.08002 7.53341 2.78668C7.89341 3.18668 8.16008 3.65336 8.30674 4.17336H24.9601C26.3068 4.17336 27.5467 4.70669 28.4534 5.66669C29.3467 6.64002 29.8001 7.90669 29.6934 9.25336L28.9734 19.2534C28.8267 21.6934 26.6934 23.6667 24.2534 23.6667ZM8.37341 6.16001L7.33342 18.6933C7.26675 19.4667 7.52008 20.2 8.04008 20.7733C8.56008 21.3467 9.28007 21.6533 10.0534 21.6533H24.2534C25.6401 21.6533 26.8934 20.48 27.0001 19.0934L27.7201 9.09336C27.7734 8.3067 27.5201 7.56003 27.0001 7.01337C26.4801 6.45337 25.7601 6.14667 24.9734 6.14667H8.37341V6.16001Z" fill="#417F56"/>
<path d="M21.6667 30.3333C20.2 30.3333 19 29.1333 19 27.6667C19 26.2 20.2 25 21.6667 25C23.1333 25 24.3333 26.2 24.3333 27.6667C24.3333 29.1333 23.1333 30.3333 21.6667 30.3333ZM21.6667 27C21.2933 27 21 27.2933 21 27.6667C21 28.04 21.2933 28.3333 21.6667 28.3333C22.04 28.3333 22.3333 28.04 22.3333 27.6667C22.3333 27.2933 22.04 27 21.6667 27Z" fill="#417F56"/>
<path d="M10.9999 30.3333C9.53325 30.3333 8.33325 29.1333 8.33325 27.6667C8.33325 26.2 9.53325 25 10.9999 25C12.4666 25 13.6666 26.2 13.6666 27.6667C13.6666 29.1333 12.4666 30.3333 10.9999 30.3333ZM10.9999 27C10.6266 27 10.3333 27.2933 10.3333 27.6667C10.3333 28.04 10.6266 28.3333 10.9999 28.3333C11.3733 28.3333 11.6666 28.04 11.6666 27.6667C11.6666 27.2933 11.3733 27 10.9999 27Z" fill="#417F56"/>
<path d="M28 11.6667H12C11.4533 11.6667 11 11.2134 11 10.6667C11 10.12 11.4533 9.66669 12 9.66669H28C28.5467 9.66669 29 10.12 29 10.6667C29 11.2134 28.5467 11.6667 28 11.6667Z" fill="#417F56"/>
</svg>