<svg width="16" height="17" viewBox="0 0 16 17" fill="none" xmlns="http://www.w3.org/2000/svg">
<g id="vuesax/outline/trash">
<g id="vuesax/outline/trash_2">
<g id="trash">
<path id="Vector" d="M13.9999 4.98657C13.9866 4.98657 13.9666 4.98657 13.9466 4.98657C10.4199 4.63324 6.89994 4.4999 3.41328 4.85324L2.05328 4.98657C1.77328 5.01324 1.52661 4.81324 1.49994 4.53324C1.47328 4.25324 1.67328 4.01324 1.94661 3.98657L3.30661 3.85324C6.85328 3.49324 10.4466 3.63324 14.0466 3.98657C14.3199 4.01324 14.5199 4.2599 14.4933 4.53324C14.4733 4.79324 14.2533 4.98657 13.9999 4.98657Z" fill="#417F56"/>
<path id="Vector_2" d="M5.66663 4.31325C5.63997 4.31325 5.6133 4.31325 5.57997 4.30659C5.3133 4.25992 5.12663 3.99992 5.1733 3.73325L5.31997 2.85992C5.42663 2.21992 5.5733 1.33325 7.12663 1.33325H8.8733C10.4333 1.33325 10.58 2.25325 10.68 2.86659L10.8266 3.73325C10.8733 4.00659 10.6866 4.26659 10.42 4.30659C10.1466 4.35325 9.88663 4.16659 9.84663 3.89992L9.69997 3.03325C9.60663 2.45325 9.58663 2.33992 8.87997 2.33992H7.1333C6.42663 2.33992 6.4133 2.43325 6.3133 3.02659L6.15997 3.89325C6.11997 4.13992 5.90663 4.31325 5.66663 4.31325Z" fill="#417F56"/>
<path id="Vector_3" d="M10.14 15.6667H5.85997C3.53331 15.6667 3.43997 14.3801 3.36664 13.3401L2.93331 6.62672C2.91331 6.35338 3.12664 6.11338 3.39997 6.09338C3.67997 6.08005 3.91331 6.28672 3.93331 6.56005L4.36664 13.2734C4.43997 14.2867 4.46664 14.6667 5.85997 14.6667H10.14C11.54 14.6667 11.5666 14.2867 11.6333 13.2734L12.0666 6.56005C12.0866 6.28672 12.3266 6.08005 12.6 6.09338C12.8733 6.11338 13.0866 6.34672 13.0666 6.62672L12.6333 13.3401C12.56 14.3801 12.4666 15.6667 10.14 15.6667Z" fill="#417F56"/>
<path id="Vector_4" d="M9.10672 12H6.88672C6.61339 12 6.38672 11.7733 6.38672 11.5C6.38672 11.2267 6.61339 11 6.88672 11H9.10672C9.38005 11 9.60672 11.2267 9.60672 11.5C9.60672 11.7733 9.38005 12 9.10672 12Z" fill="#417F56"/>
<path id="Vector_5" d="M9.66671 9.33325H6.33337C6.06004 9.33325 5.83337 9.10658 5.83337 8.83325C5.83337 8.55992 6.06004 8.33325 6.33337 8.33325H9.66671C9.94004 8.33325 10.1667 8.55992 10.1667 8.83325C10.1667 9.10658 9.94004 9.33325 9.66671 9.33325Z" fill="#417F56"/>
</g>
</g>
</g>
</svg>
