<svg xmlns="http://www.w3.org/2000/svg" width="32" height="32" viewBox="0 0 32 32" fill="none">
<path d="M20 30.3334H12C4.76 30.3334 1.66667 27.24 1.66667 20V12C1.66667 4.76002 4.76 1.66669 12 1.66669H20C27.24 1.66669 30.3333 4.76002 30.3333 12V20C30.3333 27.24 27.24 30.3334 20 30.3334ZM12 3.66669C5.85333 3.66669 3.66667 5.85335 3.66667 12V20C3.66667 26.1467 5.85333 28.3334 12 28.3334H20C26.1467 28.3334 28.3333 26.1467 28.3333 20V12C28.3333 5.85335 26.1467 3.66669 20 3.66669H12Z" fill="#417F56"/>
<path d="M14.1067 20.7733C13.84 20.7733 13.5867 20.6667 13.4 20.48L9.62667 16.7067C9.24 16.32 9.24 15.68 9.62667 15.2933C10.0133 14.9067 10.6533 14.9067 11.04 15.2933L14.1067 18.36L20.96 11.5067C21.3467 11.12 21.9867 11.12 22.3733 11.5067C22.76 11.8933 22.76 12.5333 22.3733 12.92L14.8133 20.48C14.6267 20.6667 14.3733 20.7733 14.1067 20.7733Z" fill="#417F56"/>
</svg>