<svg xmlns="http://www.w3.org/2000/svg" width="32" height="32" viewBox="0 0 32 32" fill="none">
<path d="M17.3335 13H9.3335C8.78683 13 8.3335 12.5467 8.3335 12C8.3335 11.4533 8.78683 11 9.3335 11H17.3335C17.8802 11 18.3335 11.4533 18.3335 12C18.3335 12.5467 17.8802 13 17.3335 13Z" fill="#417F56"/>
<path d="M25.3867 19.7332C23.3733 19.7332 21.6667 18.2399 21.5067 16.3199C21.4 15.2132 21.8001 14.1333 22.6001 13.3466C23.2667 12.6533 24.2133 12.2666 25.2133 12.2666H28C29.32 12.3066 30.3334 13.3465 30.3334 14.6265V17.3733C30.3334 18.6533 29.3201 19.6932 28.0401 19.7332H25.3867ZM27.96 14.2666H25.2267C24.76 14.2666 24.3334 14.4399 24.0267 14.7599C23.6401 15.1333 23.4534 15.6399 23.5067 16.1466C23.5734 17.0266 24.4267 17.7332 25.3867 17.7332H28C28.1734 17.7332 28.3334 17.5733 28.3334 17.3733V14.6265C28.3334 14.4265 28.1733 14.2799 27.96 14.2666Z" fill="#417F56"/>
<path d="M21.3332 28.3334H9.33317C4.7465 28.3334 1.6665 25.2534 1.6665 20.6667V11.3334C1.6665 7.22669 4.1998 4.25336 8.13314 3.76003C8.49314 3.7067 8.9065 3.66669 9.33317 3.66669H21.3332C21.6532 3.66669 22.0665 3.68002 22.4932 3.74668C26.4265 4.20002 28.9998 7.18669 28.9998 11.3334V13.2667C28.9998 13.8134 28.5465 14.2667 27.9998 14.2667H25.2265C24.7598 14.2667 24.3332 14.44 24.0265 14.76L24.0132 14.7734C23.6399 15.1334 23.4665 15.6267 23.5065 16.1333C23.5732 17.0133 24.4265 17.72 25.3865 17.72H27.9998C28.5465 17.72 28.9998 18.1733 28.9998 18.72V20.6533C28.9998 25.2533 25.9198 28.3334 21.3332 28.3334ZM9.33317 5.66669C9.01317 5.66669 8.70649 5.69334 8.39982 5.73334C5.46649 6.10667 3.6665 8.24002 3.6665 11.3334V20.6667C3.6665 24.1067 5.89317 26.3334 9.33317 26.3334H21.3332C24.7732 26.3334 26.9998 24.1067 26.9998 20.6667V19.7333H25.3865C23.3731 19.7333 21.6665 18.24 21.5065 16.32C21.3998 15.2267 21.7999 14.1334 22.5999 13.36C23.2932 12.6534 24.2265 12.2667 25.2265 12.2667H26.9998V11.3334C26.9998 8.21335 25.1731 6.06666 22.2131 5.71999C21.8931 5.66666 21.6132 5.66669 21.3332 5.66669H9.33317Z" fill="#417F56"/>
</svg>