<svg xmlns="http://www.w3.org/2000/svg" width="29" height="32" viewBox="0 0 29 32" fill="none">
<path d="M9.75312 19.2743C8.90437 18.9158 8.05562 18.6533 7.28344 18.058C7.97904 18.0196 8.50871 18.3461 9.09582 18.4805C8.25983 17.7956 7.36641 17.1874 6.71549 16.2977C7.4047 16.7522 8.09391 17.2002 8.78312 17.6547C8.80226 17.6355 8.82141 17.6227 8.83417 17.6035C8.36831 17.117 7.90884 16.6369 7.44298 16.1504C7.46213 16.1184 7.48128 16.0864 7.50042 16.0544C7.69187 16.1568 7.91522 16.2208 8.06838 16.3681C8.68739 16.9506 9.28088 17.5587 9.88075 18.1604C10.0403 18.3205 10.1807 18.4869 10.3594 18.6789C10.487 18.5573 10.5827 18.4549 10.6848 18.3717C10.8635 18.2372 10.8316 18.1092 10.7231 17.9428C9.92542 16.7393 8.86608 15.8048 7.63443 15.0942C6.68996 14.5501 5.6689 14.1404 4.68614 13.6667C4.26495 13.4619 3.85015 13.2443 3.42897 13.033C3.44811 12.9818 3.46087 12.9306 3.48002 12.8794C3.79272 12.9434 4.11179 13.001 4.49469 13.0778C3.88844 12.5593 3.20561 12.22 2.82271 11.5607C2.84186 11.5351 2.85462 11.5031 2.87377 11.4775C3.63956 11.9512 4.39897 12.4249 5.24772 12.9498C4.67976 12.1752 4.16923 11.4839 3.66508 10.7926C3.69061 10.767 3.71614 10.7414 3.74805 10.7157C4.00969 10.9718 4.2841 11.2086 4.5266 11.4775C5.17752 12.2072 5.79015 12.9754 6.4666 13.6731C6.7793 13.9932 7.20687 14.198 7.577 14.4605C8.08115 14.8126 8.57891 15.171 9.12773 15.5615C9.08944 15.4463 9.07667 15.3695 9.03838 15.3119C7.98542 13.5323 6.83035 11.8168 5.36259 10.3445C5.10732 10.0884 4.76272 9.90278 4.43087 9.74915C3.86291 9.4931 3.26304 9.30106 2.68232 9.07702C2.33133 8.94259 1.98672 8.78896 1.74422 8.4817C1.75699 8.44329 1.76975 8.41128 1.78251 8.37288C2.28666 8.5009 2.79719 8.63533 3.30133 8.76336C2.31219 7.86718 1.2337 7.06061 0.57001 5.85717C1.46981 6.59972 2.36962 7.34227 3.26304 8.09122C3.28857 8.07202 3.3141 8.04641 3.33324 8.02721C2.84824 7.33587 2.36324 6.63813 1.88462 5.94679C1.91653 5.91478 1.94844 5.88278 1.98034 5.85077C2.1335 5.9788 2.31219 6.08762 2.43344 6.24125C2.95673 6.91978 3.43535 7.64313 3.99055 8.30246C4.46278 8.85937 5.02436 9.34587 5.51574 9.88358C5.96884 10.3765 6.38364 10.9014 6.81121 11.4135C6.87502 11.4903 6.94522 11.5735 7.00904 11.6503C7.03456 11.6375 7.06009 11.6247 7.092 11.6055C7.00904 11.4135 6.92608 11.215 6.83673 11.0294C6.41555 10.1524 6.04541 9.23705 5.54765 8.40488C4.8712 7.27826 4.0416 6.26045 2.97587 5.4667C2.70146 5.26185 2.35048 5.17224 2.02502 5.03781C1.54001 4.83297 1.01672 4.69854 0.621065 4.25045C1.19541 4.11603 1.65488 4.5001 2.26113 4.59612C1.73146 4.02001 0.952905 3.80876 0.697641 3.09182C0.723168 3.05341 0.742315 3.0214 0.767841 2.983C1.01672 3.12383 1.27199 3.27106 1.56554 3.43749C1.3358 3.02781 1.12521 2.65653 0.920997 2.27886C0.940142 2.25965 0.959288 2.24045 0.978433 2.22125C1.11245 2.33007 1.2656 2.41969 1.36771 2.54771C2.02501 3.37348 2.65679 4.21844 3.32048 5.03141C3.9012 5.74195 4.51383 6.43329 5.15838 7.10542C4.92864 6.57412 4.71804 6.03641 4.46278 5.5179C4.1437 4.85857 3.90758 4.15443 3.37153 3.62313C2.64403 2.90618 1.92929 2.18284 1.21455 1.45309C1.01034 1.24185 0.838038 1.005 0.691261 0.736147C1.55278 1.14583 2.13988 1.88838 2.82909 2.5093C2.85462 2.4901 2.88015 2.4773 2.90567 2.45809C2.5164 1.65793 2.12712 0.864173 1.73146 0.0640128C1.76337 0.044809 1.80166 0.0192038 1.83357 0C2.45258 0.921784 3.07797 1.84357 3.69699 2.76535C3.71613 2.75895 3.74166 2.75255 3.76081 2.74615C3.63955 2.08682 3.51831 1.43389 3.40344 0.774555C3.44173 0.761753 3.48002 0.74895 3.51831 0.742549C3.56936 0.876976 3.63318 1.005 3.6587 1.14583C3.77995 1.74115 3.85015 2.34927 4.02245 2.92539C4.24581 3.65513 4.54574 4.35927 4.83292 5.06341C4.99246 5.46029 5.19666 5.84437 5.43278 6.22845C5.45831 5.01861 5.09456 3.82797 5.23496 2.61813C5.27324 2.61172 5.30515 2.60532 5.34344 2.59252C5.45193 2.88058 5.55404 3.16863 5.66252 3.45669C5.68167 3.45669 5.70081 3.45669 5.71995 3.45669C5.81568 2.93179 5.9114 2.40048 6.01989 1.82437C6.32621 2.04201 6.30706 2.28526 6.28153 2.5093C6.17305 3.43749 6.0518 4.36567 5.93693 5.28746C5.92417 5.37708 5.93693 5.4667 5.96884 5.56271C6.31983 4.9802 6.45384 4.28886 6.92608 3.78956C6.95799 3.79596 6.98989 3.80876 7.01542 3.81516C7.00904 3.91118 7.0218 4.0136 6.98989 4.09682C6.83035 4.58332 6.67081 5.06341 6.49213 5.54351C6.19858 6.32447 6.03904 7.12463 6.17943 7.95039C6.25601 8.39208 6.46022 8.81456 6.64529 9.23065C7.11114 10.2933 7.58976 11.3495 8.08114 12.3993C8.3045 12.8794 8.55976 13.3403 8.80226 13.814C8.84055 13.8076 8.87246 13.7948 8.91075 13.7884C8.86608 13.5323 8.84055 13.2699 8.78312 13.0138C8.63634 12.3993 8.47042 11.7848 8.31726 11.1702C8.17049 10.5941 8.01095 10.0244 7.8897 9.44189C7.8195 9.09622 7.80674 8.73775 7.76845 8.38568C7.81312 8.37288 7.85141 8.36647 7.89608 8.35367C8.05562 8.73135 8.22154 9.11543 8.41299 9.57632C8.52147 8.92339 8.6172 8.34727 8.71292 7.77116C8.74483 7.77116 8.77674 7.77756 8.80226 7.77756C8.84693 8.55851 8.89161 9.34587 8.94266 10.1268C8.96818 10.1332 8.99371 10.1332 9.02562 10.1396C9.24897 9.64033 9.30641 9.05781 9.82332 8.68654C9.78503 8.91698 9.7595 9.14103 9.70845 9.37148C9.52338 10.1972 9.2745 11.0166 9.15325 11.8552C9.08943 12.3161 9.22345 12.8026 9.29365 13.2763C9.38937 13.8972 9.40213 14.5629 9.65102 15.1134C10.0786 16.0544 10.6657 16.9186 11.2081 17.8596C11.3677 17.7059 11.457 17.6099 11.5591 17.5203C11.7123 17.3859 11.7123 17.2579 11.6357 17.0722C11.3549 16.4193 11.0869 15.76 10.8316 15.1006C10.755 14.8958 10.7423 14.6717 10.704 14.4541C10.7423 14.4413 10.7742 14.4221 10.8125 14.4093C11.0294 14.819 11.2528 15.2222 11.5208 15.7215C11.4698 14.7101 11.2145 13.7884 11.4889 12.8602C11.859 13.4555 11.7314 14.1788 11.9867 14.8894C12.1335 14.3709 12.2611 13.9228 12.3887 13.4619C12.7078 13.5515 12.7078 13.75 12.6631 13.9548C12.5419 14.5565 12.4015 15.1582 12.2802 15.76C12.2292 16.0288 12.21 16.3041 12.1845 16.5793C12.1781 16.6433 12.2292 16.7073 12.2675 16.829C13.6778 15.4399 15.0562 14.0828 16.4346 12.7257C15.7263 11.932 15.4902 11.023 15.7199 10.0308C15.8093 9.65313 16.0071 9.25625 16.2687 8.9746C18.732 6.27966 21.2208 3.60392 23.7033 0.921786C23.7288 0.88978 23.7671 0.870575 23.799 0.84497C24.2266 1.08822 24.284 1.39548 23.9777 1.74755C22.1015 3.91118 20.2189 6.07482 18.3491 8.24485C18.2215 8.39208 18.0492 8.55211 18.2534 8.76975C18.4257 8.94899 18.7639 8.9874 18.9554 8.82097C19.2234 8.57772 19.4723 8.31527 19.7275 8.05921C21.5335 6.22205 23.3459 4.38488 25.1519 2.54771C25.2285 2.4709 25.2859 2.38128 25.3497 2.31086C25.8284 2.56691 25.8922 2.87418 25.5667 3.24545C23.7097 5.38348 21.8526 7.52791 20.002 9.66593C19.8488 9.83877 19.6063 10.018 19.8807 10.2805C20.0785 10.4725 20.4231 10.4405 20.6529 10.21C21.7122 9.13463 22.7652 8.04641 23.8373 6.9774C24.8966 5.92759 25.9687 4.89698 27.06 3.84077C27.411 4.02 27.4812 4.35287 27.1812 4.69854C25.3178 6.84297 23.4544 8.9938 21.591 11.1446C21.4506 11.3047 21.1889 11.4647 21.4378 11.7335C21.642 11.9576 21.9803 11.9448 22.2355 11.6951C23.0332 10.895 23.8245 10.0884 24.6158 9.28186C25.8603 8.0144 27.1047 6.74055 28.3555 5.47309C28.432 5.39628 28.5086 5.33227 28.6554 5.19144C28.783 5.44749 28.8915 5.66513 29 5.88918C28.2534 6.69574 27.5259 7.4895 26.7984 8.27686C25.0689 10.146 23.3204 11.996 21.6229 13.8908C20.5827 15.0558 18.9618 15.0814 17.9726 14.1084C17.9407 14.0764 17.9088 14.0572 17.8514 14.0124C17.7493 14.134 17.6408 14.2493 17.545 14.3709C16.6261 15.4655 15.7071 16.5601 14.7882 17.6419C14.6478 17.8084 14.6095 17.9492 14.6861 18.1604C14.8392 18.6021 14.9541 19.0566 15.0945 19.5047C15.12 19.5943 15.1711 19.6775 15.2413 19.7608C15.3434 19.031 15.069 18.2821 15.4136 17.4947C15.5029 17.802 15.605 18.0388 15.637 18.2821C15.7199 18.9798 15.7518 19.6775 15.8475 20.3753C15.9752 21.3035 16.1602 22.2252 16.7091 23.019C17.2004 23.736 17.6663 24.4785 18.1896 25.1762C18.4129 25.4771 18.732 25.7139 19.0256 25.9572C19.7148 26.5269 20.4104 27.0838 21.106 27.6471C21.1698 27.6983 21.24 27.7304 21.3357 27.788C20.6401 26.9558 19.9381 26.1748 19.3 25.3427C18.6618 24.5169 17.9471 23.7423 17.5068 22.7822C17.5387 22.7566 17.577 22.7246 17.6089 22.6989C18.0556 23.2303 18.5023 23.7552 19 24.3377C18.6427 23.4735 18.3172 22.6797 17.9918 21.8796C18.03 21.8604 18.0683 21.8476 18.1066 21.8284C18.6172 22.8078 19.032 23.8448 19.7467 24.7089C19.6318 23.96 19.517 23.2174 19.4021 22.4685C19.8424 22.7886 19.8679 23.2559 19.97 23.6847C20.0785 24.1584 20.1679 24.6385 20.2572 25.1186C20.3912 25.8228 20.6529 26.4565 21.1762 26.975C21.8718 27.6727 22.4908 28.4729 23.2502 29.0938C24.0287 29.7275 24.9222 30.2204 25.7901 30.7389C26.4665 31.1358 27.1812 31.4751 27.8768 31.8336C27.9407 31.8656 27.9981 31.9104 28.0236 32C27.5897 31.8208 27.1302 31.6735 26.7154 31.4559C25.5859 30.8542 24.4818 30.1948 23.3459 29.5995C22.2674 29.0362 21.1826 28.4537 20.0466 28.0184C19.4212 27.7816 18.6873 27.8264 18.0045 27.7688C17.5068 27.7239 17.009 27.7303 16.5112 27.6855C16.3389 27.6727 16.173 27.5831 16.0071 27.4743C16.5559 27.1542 17.143 27.3399 17.7173 27.2374C16.9069 26.9878 16.1028 26.7381 15.2923 26.4885C15.2987 26.4501 15.3051 26.4181 15.3179 26.3797C15.6178 26.2068 15.9305 26.2901 16.2432 26.3605C16.5431 26.4245 16.8431 26.5077 17.1621 26.5141C16.4091 26.0532 15.6561 25.5859 14.9031 25.125C15.688 25.2018 16.3517 25.5667 17.0218 25.9124C17.8003 26.3221 18.5597 26.7766 19.3383 27.1926C19.6701 27.3655 20.0275 27.4935 20.3721 27.6407C20.3912 27.6151 20.404 27.5895 20.4231 27.5639C20.187 27.3655 19.9509 27.1734 19.7148 26.9686C18.1896 25.6371 16.4474 24.6449 14.6287 23.7936C14.1756 23.5823 13.6204 23.5823 13.1098 23.4735C12.6121 23.3711 12.1143 23.2751 11.6229 23.1534C11.4698 23.115 11.3294 23.0062 11.1315 22.9038C11.6229 22.6093 12.0696 22.8974 12.5929 22.8462C12.0505 22.5645 11.5783 22.3277 11.0869 22.078C10.5955 22.6605 10.1105 23.2366 9.62549 23.8128C7.54509 26.2965 5.46469 28.7738 3.38429 31.2575C2.86738 31.872 2.21008 32.0832 1.43791 31.8784C0.652973 31.6671 0.212642 31.123 0.0531022 30.3293C-0.112819 29.5099 0.110538 28.8442 0.716789 28.2489C3.6587 25.3747 6.58147 22.4877 9.51062 19.6007C9.55529 19.4855 9.63825 19.3895 9.75312 19.2743ZM14.4053 18.0516C13.9969 18.5317 13.6267 18.9542 13.2758 19.3959C13.2183 19.4663 13.2183 19.6391 13.263 19.7287C13.7161 20.6505 14.3096 21.4763 15.0243 22.2124C15.2158 22.4109 15.3817 22.6349 15.5667 22.8334C15.7965 23.083 16.0454 23.3135 16.2879 23.5567C16.3262 23.5247 16.3645 23.4991 16.4027 23.4671C16.0709 22.8846 15.7391 22.2957 15.4008 21.7131C14.935 20.9066 14.4564 20.1 14.0033 19.2871C13.9203 19.1398 13.9267 18.935 13.8884 18.7558C13.9331 18.7365 13.9777 18.7173 14.0224 18.6981C14.3032 19.1526 14.5904 19.6071 14.8712 20.0552C14.8967 20.0424 14.9158 20.036 14.9414 20.0232C14.7754 19.3959 14.5968 18.7558 14.4053 18.0516ZM11.8016 21.1498C13.0333 22.5133 14.6031 23.2687 16.1858 24.0176C14.9031 22.859 13.8373 21.4571 12.2675 20.5865C12.1143 20.7786 11.9611 20.9642 11.8016 21.1498Z" fill="#417F56"/>
</svg>