<svg width="24" height="25" viewBox="0 0 24 25" fill="none" xmlns="http://www.w3.org/2000/svg">
<g id="vuesax/outline/wallet-money">
<g id="wallet-money">
<path id="Vector" d="M7.1698 23.25C4.7898 23.25 2.83984 21.52 2.83984 19.39V17.35C2.83984 16.94 3.17984 16.6 3.58984 16.6C3.99984 16.6 4.33984 16.94 4.33984 17.35C4.33984 18.6 5.5498 19.54 7.1698 19.54C8.7898 19.54 9.99982 18.6 9.99982 17.35C9.99982 16.94 10.3398 16.6 10.7498 16.6C11.1598 16.6 11.4998 16.94 11.4998 17.35V19.39C11.4998 21.52 9.5598 23.25 7.1698 23.25ZM4.59979 20.37C5.03979 21.19 6.0298 21.75 7.1698 21.75C8.3098 21.75 9.29981 21.18 9.73981 20.37C9.02981 20.8 8.1498 21.05 7.1698 21.05C6.1898 21.05 5.30979 20.8 4.59979 20.37Z" fill="#353535"/>
<path id="Vector_2" d="M7.1698 18.2999C5.5298 18.2999 4.05983 17.5499 3.32983 16.3599C3.00983 15.8399 2.83984 15.2299 2.83984 14.6099C2.83984 13.5599 3.29983 12.5799 4.13983 11.8499C5.75983 10.4299 8.54981 10.43 10.1798 11.84C11.0198 12.58 11.4898 13.5599 11.4898 14.6099C11.4898 15.2299 11.3198 15.8399 10.9998 16.3599C10.2798 17.5499 8.8098 18.2999 7.1698 18.2999ZM7.1698 12.2499C6.3898 12.2499 5.66982 12.5099 5.12982 12.9799C4.61982 13.4199 4.33984 13.9999 4.33984 14.6099C4.33984 14.9599 4.4298 15.28 4.6098 15.58C5.0698 16.34 6.0498 16.8099 7.1698 16.8099C8.2898 16.8099 9.26979 16.34 9.71979 15.59C9.89979 15.3 9.98981 14.9699 9.98981 14.6199C9.98981 14.0099 9.70983 13.4299 9.19983 12.9799C8.66983 12.5099 7.9498 12.2499 7.1698 12.2499Z" fill="#353535"/>
<path id="Vector_3" d="M7.1698 21.05C4.6998 21.05 2.83984 19.46 2.83984 17.36V14.61C2.83984 12.48 4.7798 10.75 7.1698 10.75C8.2998 10.75 9.37982 11.14 10.1898 11.84C11.0298 12.58 11.4998 13.56 11.4998 14.61V17.36C11.4998 19.46 9.6398 21.05 7.1698 21.05ZM7.1698 12.25C5.6098 12.25 4.33984 13.31 4.33984 14.61V17.36C4.33984 18.61 5.5498 19.55 7.1698 19.55C8.7898 19.55 9.99982 18.61 9.99982 17.36V14.61C9.99982 14 9.71984 13.42 9.20984 12.97C8.66984 12.51 7.9498 12.25 7.1698 12.25Z" fill="#353535"/>
<path id="Vector_4" d="M19.0399 15.2999C17.5299 15.2999 16.2499 14.1799 16.1299 12.7399C16.0499 11.9099 16.3499 11.0999 16.9499 10.5099C17.4499 9.98995 18.1599 9.69995 18.9099 9.69995H20.9999C21.9899 9.72995 22.7499 10.5099 22.7499 11.4699V13.53C22.7499 14.49 21.9899 15.2699 21.0299 15.2999H19.0399ZM20.9699 11.2H18.9199C18.5699 11.2 18.2499 11.3299 18.0199 11.5699C17.7299 11.8499 17.5899 12.2299 17.6299 12.6099C17.6799 13.2699 18.3199 13.7999 19.0399 13.7999H20.9999C21.1299 13.7999 21.2499 13.68 21.2499 13.53V11.4699C21.2499 11.3199 21.1299 11.21 20.9699 11.2Z" fill="#353535"/>
<path id="Vector_5" d="M16.0002 21.75H13.5002C13.0902 21.75 12.7502 21.41 12.7502 21C12.7502 20.59 13.0902 20.25 13.5002 20.25H16.0002C18.5802 20.25 20.2502 18.58 20.2502 16V15.3H19.0402C17.5302 15.3 16.2502 14.18 16.1302 12.74C16.0502 11.91 16.3503 11.1 16.9503 10.51C17.4503 9.99001 18.1602 9.70001 18.9102 9.70001H20.2402V9C20.2402 6.66 18.8703 5.04998 16.6503 4.78998C16.4103 4.74998 16.2002 4.75 15.9902 4.75H6.99023C6.75023 4.75 6.52022 4.76999 6.29022 4.79999C4.09022 5.07999 2.74023 6.68 2.74023 9V11C2.74023 11.41 2.40023 11.75 1.99023 11.75C1.58023 11.75 1.24023 11.41 1.24023 11V9C1.24023 5.92 3.14027 3.69001 6.09027 3.32001C6.36027 3.28001 6.67023 3.25 6.99023 3.25H15.9902C16.2302 3.25 16.5402 3.26 16.8602 3.31C19.8102 3.65 21.7402 5.89 21.7402 9V10.45C21.7402 10.86 21.4002 11.2 20.9902 11.2H18.9102C18.5602 11.2 18.2403 11.33 18.0103 11.57C17.7203 11.85 17.5802 12.23 17.6202 12.61C17.6702 13.27 18.3103 13.8 19.0303 13.8H21.0002C21.4102 13.8 21.7502 14.14 21.7502 14.55V16C21.7502 19.44 19.4402 21.75 16.0002 21.75Z" fill="#353535"/>
</g>
</g>
</svg>
